<svg width="130" height="20" viewBox="0 0 130 20" fill="none" xmlns="http://www.w3.org/2000/svg">
<g clip-path="url(#clip0_46_307)">
<path d="M13.2791 19.3059H7.89187C5.79881 19.3059 3.79148 18.4744 2.31147 16.9944C0.83146 15.5144 0 13.5071 0 11.414V0.474976H4.2172V14.0834C4.21766 14.3497 4.32378 14.605 4.51227 14.7931C4.70075 14.9813 4.9562 15.087 5.22253 15.087H13.2791V19.3059Z" fill="#06D6A0"/>
<path d="M49.5974 0.474976H44.2102C43.1738 0.474748 42.1475 0.678724 41.1899 1.07525C40.2323 1.47177 39.3622 2.05307 38.6293 2.78594C37.8964 3.51881 37.3151 4.3889 36.9186 5.34648C36.5221 6.30407 36.3181 7.3304 36.3184 8.36684V19.3059H40.5355V5.69751C40.5355 5.43088 40.6415 5.17517 40.83 4.98663C41.0185 4.79809 41.2742 4.69217 41.5409 4.69217H49.5974V0.474976Z" fill="#06D6A0"/>
<path d="M104.022 0.474976V12.3344C104.022 13.2563 103.655 14.1403 103.003 14.792C102.351 15.4437 101.467 15.8098 100.545 15.8098H97.8361C97.3793 15.8109 96.9269 15.7218 96.5048 15.5476C96.0826 15.3733 95.699 15.1174 95.3761 14.7944C95.0531 14.4715 94.7972 14.0879 94.6229 13.6657C94.4487 13.2436 94.3596 12.7911 94.3607 12.3344V0.474976H90.3203V11.8144C90.3203 13.9144 91.1545 15.9283 92.6394 17.4132C94.1243 18.8981 96.1382 19.7323 98.2382 19.7323H100.145C102.245 19.7323 104.259 18.8981 105.744 17.4132C107.229 15.9283 108.063 13.9144 108.063 11.8144V0.474976H104.022Z" fill="#06D6A0"/>
<path d="M15.6644 13.9014C15.644 12.8665 15.9549 11.8523 16.5519 11.0067C17.17 10.1562 17.9654 9.45003 18.8832 8.93709C19.9176 8.35833 21.0339 7.93987 22.1939 7.69602C23.4427 7.42021 24.7179 7.28187 25.9968 7.28349C26.7109 7.28349 27.3228 7.29562 27.8341 7.32336C28.3455 7.35109 28.8637 7.39095 29.3941 7.44469V6.69762C29.3941 5.7154 29.0145 4.9822 28.2553 4.49802C27.4961 4.01384 26.4971 3.77175 25.2584 3.77175C24.0899 3.77599 22.9271 3.93511 21.8004 4.24495C20.635 4.56067 19.5157 5.02681 18.4707 5.63162L16.7755 2.36256C18.0309 1.64087 19.3696 1.07508 20.7621 0.677754C22.2225 0.260929 23.7345 0.0531695 25.2532 0.0606825C26.2684 0.0610617 27.2803 0.177371 28.2692 0.407349C29.2167 0.617849 30.1181 0.998407 30.9299 1.53055C31.7137 2.05282 32.361 2.75538 32.8175 3.57935C33.2878 4.41944 33.5229 5.45944 33.5229 6.69935V19.3128H29.3872V16.5395C28.7285 17.5668 27.7567 18.3647 26.4717 18.9332C25.1646 19.5064 23.7511 19.7971 22.3239 19.786C21.4433 19.792 20.5669 19.6658 19.7239 19.4116C18.9543 19.1827 18.2395 18.7993 17.6231 18.285C17.021 17.7774 16.5345 17.1468 16.1965 16.4355C15.8278 15.6426 15.6457 14.7756 15.6644 13.9014ZM23.3933 16.0212C24.1749 16.0266 24.9534 15.9216 25.7056 15.7092C26.382 15.5204 27.0252 15.228 27.6123 14.8426C28.1391 14.4982 28.5835 14.0419 28.914 13.5062C29.2293 12.9834 29.3932 12.3833 29.3872 11.7728V11.0691C28.7731 10.9688 28.1528 10.9109 27.5308 10.8958C26.9519 10.8819 26.4423 10.875 25.9968 10.875C23.9515 10.875 22.4076 11.143 21.3653 11.6792C20.323 12.2154 19.803 12.8787 19.8053 13.6691C19.803 15.2372 20.999 16.0212 23.3933 16.0212Z" fill="#06D6A0"/>
<path d="M50.6894 13.9014C50.669 12.8665 50.98 11.8523 51.5769 11.0067C52.195 10.1562 52.9905 9.45003 53.9082 8.93709C54.9427 8.35833 56.0589 7.93987 57.2189 7.69602C58.4677 7.42012 59.7429 7.28179 61.0219 7.28349C61.736 7.28349 62.3479 7.29562 62.8592 7.32335C63.3705 7.35109 63.8888 7.39095 64.4192 7.44468V6.69762C64.4192 5.7154 64.0396 4.9822 63.2804 4.49802C62.5212 4.01384 61.5222 3.77175 60.2834 3.77175C59.1132 3.77542 57.9486 3.93455 56.8202 4.24495C55.6544 4.56097 54.5345 5.02709 53.4888 5.63162L51.7936 2.36255C53.0492 1.64136 54.3879 1.0756 55.7802 0.677754C57.2406 0.260929 58.7527 0.0531695 60.2713 0.0606825C61.2866 0.0610617 62.2985 0.177371 63.2873 0.407349C64.2365 0.619585 65.1392 1.00252 65.9515 1.53749C66.7353 2.05976 67.3826 2.76232 67.8391 3.58629C68.3082 4.42638 68.5434 5.46638 68.5445 6.70629V19.3197H64.4071V16.5464C63.7484 17.5737 62.7766 18.3716 61.4916 18.9402C60.1845 19.5134 58.771 19.804 57.3437 19.793C56.4632 19.799 55.5868 19.6728 54.7437 19.4186C53.9731 19.1876 53.2577 18.8019 52.6412 18.285C52.0418 17.7774 51.5573 17.1482 51.2198 16.439C50.8512 15.6448 50.6697 14.7767 50.6894 13.9014ZM58.4184 16.0212C59.1994 16.0267 59.9773 15.9217 60.7289 15.7092C61.4054 15.5205 62.0486 15.2282 62.6356 14.8426C63.1624 14.4982 63.6069 14.0419 63.9373 13.5062C64.2527 12.9834 64.4165 12.3833 64.4105 11.7728V11.0691C63.7964 10.9688 63.1762 10.9109 62.5541 10.8958C61.9763 10.8819 61.465 10.875 61.0201 10.875C58.9748 10.875 57.431 11.143 56.3886 11.6792C55.3463 12.2154 54.8263 12.8787 54.8286 13.6691C54.824 15.2372 56.0189 16.0212 58.4132 16.0212H58.4184Z" fill="#06D6A0"/>
<path d="M69.2153 0.502625L75.1451 16.5654C75.4421 17.3708 75.9788 18.0658 76.683 18.5567C77.3871 19.0476 78.2249 19.3109 79.0832 19.311H80.3417L73.3962 0.502625H69.2153Z" fill="#06D6A0"/>
<path d="M84.032 0.502625C83.822 0.502403 83.617 0.5666 83.4447 0.686554C83.2723 0.806507 83.1409 0.976442 83.0682 1.17342L80.6416 7.73062C80.1683 9.0132 80.1683 10.4226 80.6416 11.7052L82.472 16.666L88.4399 0.502625H84.032ZM82.9382 5.83609C82.7424 5.30647 82.7424 4.72425 82.9382 4.19462L83.817 1.81822C83.8578 1.70771 83.9316 1.61239 84.0283 1.54512C84.125 1.47786 84.24 1.44189 84.3578 1.44209H87.0896L84.2036 9.27156L82.9382 5.83609Z" fill="#06D6A0"/>
<path d="M114.525 11.4521C114.711 12.725 115.371 13.8807 116.373 14.6883C117.402 15.5469 118.785 15.9761 120.522 15.9761C121.734 16.0029 122.94 15.7866 124.067 15.34C125.03 14.9435 125.912 14.3717 126.667 13.6535L128.808 16.6001C127.595 17.8054 126.313 18.6293 124.961 19.0719C123.527 19.5249 122.031 19.7483 120.527 19.734C119.141 19.7459 117.764 19.4996 116.468 19.0077C115.261 18.5511 114.156 17.8614 113.216 16.978C112.296 16.1011 111.564 15.046 111.065 13.8771C110.534 12.6118 110.269 11.2504 110.289 9.87827C110.275 8.52861 110.518 7.18862 111.004 5.92974C111.459 4.76032 112.147 3.69538 113.026 2.79934C113.913 1.90497 114.975 1.20334 116.146 0.738407C118.777 -0.258007 121.684 -0.243181 124.304 0.78001C125.517 1.28324 126.601 2.05276 127.476 3.03161C128.402 4.08345 129.109 5.30904 129.556 6.63694C129.782 7.28174 130.972 11.4539 128.211 11.4539L114.525 11.4521ZM125.57 7.77574C125.471 7.1875 125.253 6.62549 124.93 6.12375C124.608 5.62202 124.187 5.191 123.692 4.85681C122.66 4.12478 121.422 3.73938 120.156 3.75614C118.886 3.74188 117.643 4.12688 116.603 4.85681C116.103 5.18759 115.676 5.61718 115.348 6.11916C115.02 6.62114 114.798 7.18489 114.696 7.77574H125.57Z" fill="#06D6A0"/>
</g>
<defs>
<clipPath id="clip0_46_307">
<rect width="130" height="19.7756" fill="white"/>
</clipPath>
</defs>
</svg>
